<svg width="88" height="60" viewBox="0 0 88 60" fill="none" xmlns="http://www.w3.org/2000/svg">
<circle cx="22" cy="29" r="21.5" stroke="black"/>
<g clip-path="url(#clip0_51_2)">
<path d="M69.8499 28.2389C69.7547 27.9936 69.6119 27.7695 69.4297 27.5795L59.4256 17.5877C59.239 17.4014 59.0176 17.2536 58.7738 17.1527C58.5301 17.0519 58.2688 17 58.005 17C57.4722 17 56.9612 17.2114 56.5844 17.5877C56.3978 17.774 56.2499 17.9952 56.1489 18.2387C56.0479 18.4821 55.996 18.743 55.996 19.0065C55.996 19.5387 56.2076 20.0491 56.5844 20.4254L63.1871 26.9999H48.0008C47.4702 26.9999 46.9613 27.2105 46.586 27.5852C46.2108 27.96 46 28.4683 46 28.9983C46 29.5283 46.2108 30.0366 46.586 30.4113C46.9613 30.7861 47.4702 30.9966 48.0008 30.9966H63.1871L56.5844 37.5712C56.3969 37.757 56.248 37.978 56.1464 38.2215C56.0449 38.4651 55.9926 38.7263 55.9926 38.9901C55.9926 39.2539 56.0449 39.5151 56.1464 39.7586C56.248 40.0021 56.3969 40.2231 56.5844 40.4089C56.7704 40.5962 56.9917 40.7449 57.2355 40.8463C57.4793 40.9478 57.7409 41 58.005 41C58.2691 41 58.5306 40.9478 58.7745 40.8463C59.0183 40.7449 59.2396 40.5962 59.4256 40.4089L69.4297 30.4171C69.6119 30.2271 69.7547 30.003 69.8499 29.7577C70.05 29.2711 70.05 28.7254 69.8499 28.2389Z" fill="#3C3C3C"/>
<rect x="14" y="27" width="38" height="4" rx="2" fill="#3B3B3B"/>
</g>
<defs>
<clipPath id="clip0_51_2">
<rect width="60" height="60" fill="white" transform="translate(28)"/>
</clipPath>
</defs>
</svg>
