<svg width="99" height="96" viewBox="0 0 99 96" fill="none" xmlns="http://www.w3.org/2000/svg">
<path d="M65.2696 33.2614C63.9163 40.4295 51.8227 53.3801 42.984 62.0486C37.4908 67.436 28.9339 66.1252 32.6632 59.3954C36.1671 53.0725 45.0061 44.158 63.6054 32.3206" stroke="#DAB059" stroke-width="5"/>
<path d="M63.5173 31.3094C57.4454 35.3523 39.7308 35.7573 27.3534 35.4964C19.6611 35.3342 14.6169 28.299 22.0362 26.2614C29.007 24.347 41.5604 24.4362 63.0268 29.4616" stroke="#DAB059" stroke-width="5"/>
<path d="M73.79 36.436C76.6386 43.1516 73.7558 60.6348 71.2071 72.7497C69.6231 80.279 61.7754 83.933 61.1471 76.2646C60.5569 69.0599 62.9694 56.7402 71.8834 36.5759" stroke="#DAB059" stroke-width="5"/>
</svg>
