<?xml version="1.0" encoding="UTF-8" standalone="no"?>
<svg
   width="697"
   height="657"
   version="1.1"
   id="svg8"
   xmlns="http://www.w3.org/2000/svg"
   xmlns:svg="http://www.w3.org/2000/svg">
  <defs
     id="defs2">
    <linearGradient
       id="a"
       x1="341.57151"
       x2="669.36537"
       y1="534.95472"
       y2="307.01496"
       gradientTransform="scale(1.1264398,0.88775274)"
       gradientUnits="userSpaceOnUse">
      <stop
         offset="0"
         stop-color="#9975D0"
         id="stop1"
         style="stop-color:#5d9662;stop-opacity:1;" />
      <stop
         offset="1"
         stop-color="#4A3FDB"
         id="stop2"
         style="stop-color:#294e5d;stop-opacity:1;" />
    </linearGradient>
  </defs>
  <g
     fill="none"
     fill-rule="evenodd"
     id="g8">
    <path
       fill="url(#a)"
       d="m 233.996,231.082 c -62.714,60.37 48.746,169.37 176.07,259.677 127.324,90.307 187.825,151.88 269.763,73.005 81.938,-78.874 114.518,-247.228 0,-332.682 -114.518,-85.453 -383.12,-60.369 -445.833,0 z"
       transform="matrix(0,1,1,0,97,-97)"
       id="path2"
       style="fill:url(#a)" />
    <path
       fill="#F4F4FC"
       d="M 14.885,304.531 C -36.988,254.698 55.205,164.721 160.519,90.176 265.833,15.63 315.877,-35.197 383.651,29.912 c 67.774,65.108 94.722,204.08 0,274.62 -94.722,70.539 -316.893,49.832 -368.766,0 z"
       id="path3"
       style="fill:#edffee;fill-opacity:1" />
    <g
       stroke="#d3629d"
       stroke-width="4"
       id="g7">
      <path
         d="M 344,45.087 364.087,25 384.175,45.087 404.262,25 424.35,45.087 444.437,25"
         id="path4"
         style="fill:none;fill-opacity:1;stroke:#dab059;stroke-opacity:1" />
      <path
         d="M 344,63.087 364.087,43 384.175,63.087 404.262,43 424.35,63.087 444.437,43"
         id="path5"
         style="fill:none;fill-opacity:1;stroke:#dab059;stroke-opacity:1" />
      <path
         d="M 344,81.087 364.087,61 384.175,81.087 404.262,61 424.35,81.087 444.437,61"
         id="path6"
         style="fill:none;fill-opacity:1;stroke:#dab059;stroke-opacity:1" />
      <path
         d="M 344,99.087 364.087,79 384.175,99.087 404.262,79 424.35,99.087 444.437,79"
         id="path7"
         style="fill:none;fill-opacity:1;stroke:#dab059;stroke-opacity:1" />
    </g>
    <path
       fill="#CF6BCB"
       d="m 667,640 a 3,3 0 1 1 0,6 3,3 0 0 1 0,-6 z m -22,0 a 3,3 0 1 1 0,6 3,3 0 0 1 0,-6 z m -22,0 a 3,3 0 1 1 0,6 3,3 0 0 1 0,-6 z m -22,0 a 3,3 0 1 1 0,6 3,3 0 0 1 0,-6 z m -22,0 a 3,3 0 1 1 0,6 3,3 0 0 1 0,-6 z m -22,0 a 3,3 0 1 1 0,6 3,3 0 0 1 0,-6 z m -22,0 a 3,3 0 1 1 0,6 3,3 0 0 1 0,-6 z m -22,0 a 3,3 0 1 1 0,6 3,3 0 0 1 0,-6 z m -22,0 a 3,3 0 1 1 0,6 3,3 0 0 1 0,-6 z m 0,-22 a 3,3 0 1 1 0,6 3,3 0 0 1 0,-6 z m 176,0 a 3,3 0 1 1 0,6 3,3 0 0 1 0,-6 z m -22,0 a 3,3 0 1 1 0,6 3,3 0 0 1 0,-6 z m -22,0 a 3,3 0 1 1 0,6 3,3 0 0 1 0,-6 z m -22,0 a 3,3 0 1 1 0,6 3,3 0 0 1 0,-6 z m -22,0 a 3,3 0 1 1 0,6 3,3 0 0 1 0,-6 z m -22,0 a 3,3 0 1 1 0,6 3,3 0 0 1 0,-6 z m -22,0 a 3,3 0 1 1 0,6 3,3 0 0 1 0,-6 z m -22,0 a 3,3 0 1 1 0,6 3,3 0 0 1 0,-6 z m 0,-22 a 3,3 0 1 1 0,6 3,3 0 0 1 0,-6 z m 22,0 a 3,3 0 1 1 0,6 3,3 0 0 1 0,-6 z m 22,0 a 3,3 0 1 1 0,6 3,3 0 0 1 0,-6 z m 22,0 a 3,3 0 1 1 0,6 3,3 0 0 1 0,-6 z m 22,0 a 3,3 0 1 1 0,6 3,3 0 0 1 0,-6 z m 22,0 a 3,3 0 1 1 0,6 3,3 0 0 1 0,-6 z m 22,0 a 3,3 0 1 1 0,6 3,3 0 0 1 0,-6 z m 22,0 a 3,3 0 1 1 0,6 3,3 0 0 1 0,-6 z m -176,0 a 3,3 0 1 1 0,6 3,3 0 0 1 0,-6 z m 22,-22 a 3,3 0 1 1 0,6 3,3 0 0 1 0,-6 z m 22,0 a 3,3 0 1 1 0,6 3,3 0 0 1 0,-6 z m 22,0 a 3,3 0 1 1 0,6 3,3 0 0 1 0,-6 z m 22,0 a 3,3 0 1 1 0,6 3,3 0 0 1 0,-6 z m 22,0 a 3,3 0 1 1 0,6 3,3 0 0 1 0,-6 z m 22,0 a 3,3 0 1 1 0,6 3,3 0 0 1 0,-6 z m 22,0 a 3,3 0 1 1 0,6 3,3 0 0 1 0,-6 z m 22,0 a 3,3 0 1 1 0,6 3,3 0 0 1 0,-6 z m -176,0 a 3,3 0 1 1 0,6 3,3 0 0 1 0,-6 z"
       id="path8"
       style="fill:#dab059;fill-opacity:1" />
  </g>
</svg>
